# xmcd
#
# Track frame offsets:
#	150
#	11665
#	24502
#	35992
#	46582
#	58252
#	68080
#	79135
#	90007
#	100702
#
# Disc length: 1514 seconds
#
# Revision: 1
# Processed by: cddbd v1.5.2PL0 Copyright (c) Steve Scherf et al.
# Submitted via: audiograbber 1.83.01
#
DISCID=7105e80a
DTITLE=Donna Fargo - Somebody Special
DYEAR=2000
DGENRE=Country
TTITLE0=The Happiest Girl in the Whole USA
TTITLE1=Do I Love You
TTITLE2=That Was Yesterday
TTITLE3=Don't Be Angry
TTITLE4=Funny Face
TTITLE5=Somebody Special
TTITLE6=All That's Keeping Me Alive
TTITLE7=Daddy
TTITLE8=Sticks and Stones
TTITLE9=Wishful Thinking
EXTD=
EXTT0=
EXTT1=
EXTT2=
EXTT3=
EXTT4=
EXTT5=
EXTT6=
EXTT7=
EXTT8=
EXTT9=
PLAYORDER=
